<svg width="70" height="71" viewBox="0 0 70 71" fill="none" xmlns="http://www.w3.org/2000/svg">
<path d="M0.650002 35.5C0.650002 54.7558 16.0377 70.35 35 70.35C53.9623 70.35 69.35 54.7558 69.35 35.5C69.35 16.2442 53.9623 0.65 35 0.65C16.0377 0.65 0.650002 16.2442 0.650002 35.5Z" stroke="white" stroke-width="1.3"/>
<path d="M42.0595 36.2101L30.4287 24.3791C30.0266 23.97 30.0266 23.3068 30.4287 22.8978C30.8309 22.4888 31.4829 22.4888 31.885 22.8978L44.2439 35.4694C44.6459 35.8785 44.6459 36.5417 44.2439 36.9507L31.885 49.5224C31.4759 49.9243 30.8239 49.9128 30.4287 49.4966C30.0433 49.0906 30.0433 48.447 30.4287 48.041L42.0595 36.2101Z" fill="white"/>
</svg>
