<svg width="15" height="26" viewBox="0 0 15 26" fill="none" xmlns="http://www.w3.org/2000/svg">
<path d="M14.2908 11.5263L3.16369 0.399451C2.90634 0.141891 2.56279 0 2.19647 0C1.83016 0 1.48661 0.141891 1.22925 0.399451L0.409818 1.21868C-0.123393 1.7525 -0.123393 2.62011 0.409818 3.15312L9.75351 12.4968L0.399451 21.8509C0.142095 22.1084 0 22.4518 0 22.8179C0 23.1844 0.142095 23.5278 0.399451 23.7855L1.21888 24.6045C1.47644 24.8621 1.81979 25.004 2.1861 25.004C2.55242 25.004 2.89597 24.8621 3.15332 24.6045L14.2908 13.4675C14.5488 13.2091 14.6904 12.8641 14.6896 12.4974C14.6904 12.1293 14.5488 11.7845 14.2908 11.5263Z" fill="#F8D51F"/>
</svg>
