<svg width="77" height="25" viewBox="0 0 77 25" fill="none" xmlns="http://www.w3.org/2000/svg">
<path d="M19.1693 8.86489H10.2648V11.5158H16.58C16.268 15.233 13.1854 16.8183 10.2755 16.8183C6.55271 16.8183 3.3041 13.8796 3.3041 9.76082C3.3041 5.74845 6.40085 2.65839 10.2837 2.65839C13.2794 2.65839 15.0446 4.57426 15.0446 4.57426L16.8947 2.65218C16.8947 2.65218 14.5201 9.43239e-10 10.1891 9.43239e-10C4.67419 -7.66339e-05 0.407715 4.66959 0.407715 9.71346C0.407715 14.6559 4.42104 19.4752 10.3297 19.4752C15.5264 19.4752 19.3304 15.9037 19.3304 10.6224C19.3304 9.50816 19.1692 8.8642 19.1692 8.8642L19.1693 8.86489Z" fill="#4A8AF4"/>
<path d="M26.4496 6.90625C22.7852 6.90625 20.1592 9.75192 20.1592 13.0708C20.1592 16.4387 22.7063 19.3372 26.4926 19.3372C29.9202 19.3372 32.7283 16.7349 32.7283 13.1431C32.7283 9.0264 29.4619 6.90625 26.4496 6.90625ZM26.486 9.34769C28.288 9.34769 29.9956 10.7948 29.9956 13.1267C29.9956 15.4091 28.2952 16.8975 26.4777 16.8975C24.4807 16.8975 22.9052 15.3087 22.9052 13.1086C22.9052 10.9556 24.4612 9.34769 26.486 9.34769Z" fill="#4A8AF4"/>
<path d="M40.0547 6.90625C36.4307 6.90625 33.8335 9.75192 33.8335 13.0708C33.8335 16.4387 36.3527 19.3372 40.0973 19.3372C43.4873 19.3372 46.2645 16.7349 46.2645 13.1431C46.2645 9.0264 43.034 6.90625 40.0547 6.90625ZM40.0908 9.34769C41.873 9.34769 43.5618 10.7948 43.5618 13.1267C43.5618 15.4091 41.8802 16.8975 40.0826 16.8975C38.1075 16.8975 36.5494 15.3087 36.5494 13.1086C36.5494 10.9556 38.0882 9.34769 40.0908 9.34769Z" fill="#4A8AF4"/>
<path d="M53.3824 6.90625C50.0156 6.90625 47.3691 9.84396 47.3691 13.1413C47.3691 16.8972 50.4373 19.3879 53.3243 19.3879C55.1095 19.3879 56.0587 18.682 56.7596 17.8717V19.1021C56.7596 21.255 55.4475 22.5442 53.467 22.5442C51.5537 22.5442 50.5941 21.127 50.2606 20.3227L47.8533 21.3253C48.7073 23.1242 50.4265 25.0002 53.4869 25.0002C56.8344 25.0002 59.3858 22.8997 59.3858 18.4943V7.28144H56.7596V8.33847C55.9521 7.47159 54.8479 6.9064 53.3824 6.9064V6.90625ZM53.6261 9.35235C55.2768 9.35235 56.9718 10.7565 56.9718 13.1545C56.9718 15.5919 55.2804 16.9352 53.5896 16.9352C51.7947 16.9352 50.1245 15.4832 50.1245 13.1776C50.1245 10.782 51.8591 9.35235 53.626 9.35235H53.6261Z" fill="#4A8AF4"/>
<path d="M71.0177 6.90625C67.8482 6.90625 65.187 9.41101 65.187 13.107C65.187 17.0178 68.1533 19.3372 71.3221 19.3372C73.9669 19.3372 75.5901 17.9001 76.5588 16.6124L74.398 15.1843C73.8373 16.0487 72.8998 16.8934 71.3354 16.8934C69.5781 16.8934 68.77 15.9376 68.2695 15.0117L76.6511 11.5572L76.216 10.5448C75.4063 8.56228 73.5175 6.90663 71.018 6.90663L71.0177 6.90625ZM71.1269 9.29417C72.269 9.29417 73.0909 9.89731 73.44 10.6204L67.8425 12.9443C67.6012 11.1452 69.3172 9.29417 71.1269 9.29417Z" fill="#4A8AF4"/>
<path d="M61.1812 19.0609H63.9436V0.690674H61.1812V19.0609Z" fill="#4A8AF4"/>
</svg>
