<svg width="52" height="51" viewBox="0 0 52 51" fill="none" xmlns="http://www.w3.org/2000/svg">
<path d="M12.3609 25.5004C12.3609 22.9736 13.0571 20.6066 14.2665 18.5798V9.98267H5.66941C2.25727 14.4141 0.407715 19.8149 0.407715 25.5004C0.407715 31.1859 2.25727 36.5867 5.66941 41.0181H14.2665V32.421C13.0571 30.3942 12.3609 28.0272 12.3609 25.5004Z" fill="#FFBA00"/>
<path d="M25.9077 39.0464L19.9312 45.023L25.9077 50.9996C31.5934 50.9996 36.994 49.15 41.4255 45.7379V37.1499H32.8375C30.793 38.3637 28.416 39.0464 25.9077 39.0464Z" fill="#00AC47"/>
<path d="M14.2666 32.4207L5.66943 41.0178C6.34499 41.8951 7.08061 42.7354 7.87659 43.5314C12.6929 48.3477 19.0965 51.0002 25.9079 51.0002V39.047C20.9648 39.047 16.6325 36.3854 14.2666 32.4207Z" fill="#00AC47"/>
<path d="M51.4078 25.5002C51.4078 23.9488 51.2674 22.3945 50.9903 20.8806L50.7661 19.6555H25.9077V31.6087H38.0055C36.8307 33.9457 35.0244 35.8523 32.8374 37.1508L41.4253 45.7388C42.3027 45.0632 43.1429 44.3276 43.939 43.5316C48.7553 38.7152 51.4078 32.3115 51.4078 25.5002Z" fill="#3174F1"/>
<path d="M35.487 15.9209L36.5435 16.9774L44.9957 8.52531L43.9392 7.46885C39.1229 2.65251 32.7193 0 25.9078 0L19.9312 5.97659L25.9078 11.9532C29.5263 11.9532 32.9282 13.3623 35.487 15.9209Z" fill="#FC2C25"/>
<path d="M25.9078 11.9532V0C19.0965 0 12.6929 2.65251 7.87647 7.46875C7.08049 8.26473 6.34487 9.10494 5.66931 9.9824L14.2664 18.5795C16.6325 14.6148 20.9648 11.9532 25.9078 11.9532Z" fill="#FC2C25"/>
</svg>
