<svg width="99" height="99" viewBox="0 0 99 99" fill="none" xmlns="http://www.w3.org/2000/svg">
<path d="M46.4493 3.51996C46.8809 -0.0903492 52.1191 -0.0903492 52.5507 3.51996C52.9284 6.67984 57.2711 7.25156 58.4538 4.29712C59.8051 0.921524 64.8648 2.27728 64.3473 5.87628C63.8943 9.02625 67.941 10.7024 69.848 8.15478C72.027 5.24395 76.5634 7.86306 75.132 11.2055C73.8792 14.1309 77.3542 16.7973 79.8556 14.83C82.7137 12.5823 86.4177 16.2863 84.17 19.1444C82.2027 21.6458 84.8691 25.1208 87.7945 23.868C91.1369 22.4366 93.7561 26.973 90.8452 29.152C88.2976 31.059 89.9737 35.1057 93.1237 34.6527C96.7227 34.1352 98.0785 39.1949 94.7029 40.5462C91.7484 41.7289 92.3202 46.0716 95.48 46.4493C99.0903 46.8809 99.0903 52.1191 95.48 52.5507C92.3202 52.9284 91.7484 57.2711 94.7029 58.4538C98.0785 59.8051 96.7227 64.8648 93.1237 64.3473C89.9737 63.8943 88.2976 67.941 90.8452 69.848C93.7561 72.027 91.1369 76.5634 87.7945 75.132C84.8691 73.8792 82.2027 77.3542 84.17 79.8556C86.4177 82.7137 82.7137 86.4177 79.8556 84.17C77.3542 82.2027 73.8792 84.8691 75.132 87.7945C76.5634 91.1369 72.027 93.7561 69.848 90.8452C67.941 88.2976 63.8943 89.9737 64.3473 93.1237C64.8648 96.7227 59.8051 98.0785 58.4538 94.7029C57.2711 91.7484 52.9284 92.3202 52.5507 95.48C52.1191 99.0903 46.8809 99.0903 46.4493 95.48C46.0716 92.3202 41.7289 91.7484 40.5462 94.7029C39.1949 98.0785 34.1352 96.7227 34.6527 93.1237C35.1057 89.9737 31.059 88.2976 29.152 90.8452C26.973 93.7561 22.4366 91.1369 23.868 87.7945C25.1208 84.8691 21.6458 82.2027 19.1444 84.17C16.2863 86.4177 12.5823 82.7137 14.83 79.8556C16.7973 77.3542 14.1309 73.8792 11.2055 75.132C7.86306 76.5634 5.24395 72.027 8.15478 69.848C10.7024 67.941 9.02626 63.8943 5.87628 64.3473C2.27728 64.8648 0.921524 59.8051 4.29712 58.4538C7.25156 57.2711 6.67984 52.9284 3.51996 52.5507C-0.0903492 52.1191 -0.0903492 46.8809 3.51996 46.4493C6.67984 46.0716 7.25156 41.7289 4.29712 40.5462C0.921526 39.1949 2.27728 34.1352 5.87628 34.6527C9.02625 35.1057 10.7024 31.059 8.15477 29.152C5.24394 26.973 7.86306 22.4366 11.2055 23.868C14.1309 25.1208 16.7973 21.6458 14.83 19.1444C12.5823 16.2863 16.2863 12.5823 19.1444 14.83C21.6458 16.7973 25.1208 14.1309 23.868 11.2055C22.4366 7.86306 26.973 5.24394 29.152 8.15477C31.059 10.7024 35.1057 9.02625 34.6527 5.87628C34.1352 2.27728 39.1949 0.921526 40.5462 4.29712C41.7289 7.25156 46.0716 6.67984 46.4493 3.51996Z" fill="#C90808"/>
</svg>
