<svg width="21" height="20" viewBox="0 0 21 20" fill="none" xmlns="http://www.w3.org/2000/svg">
<path d="M9.60326 1.13339C9.97008 0.390147 11.0299 0.390146 11.3967 1.13339L13.6471 5.69312C13.7928 5.98826 14.0743 6.19283 14.4 6.24016L19.432 6.97134C20.2522 7.09053 20.5797 8.0985 19.9862 8.67704L16.345 12.2263C16.1094 12.456 16.0018 12.787 16.0574 13.1114L16.917 18.123C17.0571 18.9399 16.1997 19.5629 15.4661 19.1772L10.9653 16.8111C10.674 16.6579 10.326 16.6579 10.0347 16.8111L5.53394 19.1772C4.80032 19.5629 3.94288 18.9399 4.08299 18.123L4.94255 13.1114C4.99819 12.787 4.89064 12.456 4.65496 12.2263L1.0138 8.67704C0.420283 8.0985 0.747792 7.09053 1.56801 6.97134L6.59997 6.24016C6.92568 6.19283 7.20724 5.98826 7.35291 5.69312L9.60326 1.13339Z" fill="#D18A00"/>
</svg>
